# xmcd CD database file
#
# Track frame offsets:
#	150
#	19867
#	43352
#
# Disc length: 939 seconds
#
# Revision: 0
# Processed by: cddbd v1.5.2PL0 Copyright (c) Steve Scherf et al.
# Submitted via: CDex 1.51
#
DISCID=2203a903
DTITLE=Necktie Party - pre-release
DYEAR=2007
DGENRE=Country
TTITLE0=NecktieParty - LostAndFound
TTITLE1=NecktieParty - WereAllWaiting
TTITLE2=NecktieParty - Receiver
EXTD=YEAR: 2007
EXTT0=
EXTT1=
EXTT2=
PLAYORDER=
